<svg width="74" height="84" viewBox="0 0 74 84" fill="none" xmlns="http://www.w3.org/2000/svg">
<path d="M15.2097 39.7044C15.1251 37.2676 14.5057 34.7887 14.3225 32.3468C14.1629 30.2183 14.132 28.7308 12.8872 26.9881C11.8832 25.5826 10.9106 24.4646 11.3023 22.4799C11.5955 20.9942 12.905 20.3172 13.7743 19.1839C14.9264 17.6819 16.2151 16.7146 16.9042 14.8246C17.4105 13.4358 17.0851 12.7291 16.5553 11.4861C16.3899 11.0978 15.3541 8.82274 15.6084 8.55152C15.6322 8.52617 16.8496 8.70037 17.0039 8.70037C17.8582 8.70037 18.6906 8.89176 19.5557 8.89176C21.5884 8.89176 23.7734 8.85101 25.6859 8.0199C27.6027 7.18694 27.4031 5.24217 27.7791 3.43734C27.9828 2.45976 30.942 2.02996 31.6766 2.00197C33.2934 1.94038 34.8608 3.34165 36.521 3.34165C37.2196 3.34165 39.4988 2.94858 39.9698 3.63936C41.1565 5.37983 41.8271 7.44671 43.03 9.17883C44.6527 11.5156 46.3985 13.2042 49.1303 13.4956C51.2776 13.7246 52.0655 15.6923 53.247 17.3126C54.4594 18.9753 54.6321 21.4599 54.9017 23.4369C55.1971 25.6032 55.3769 27.7945 55.719 29.9439C56.0264 31.8742 56.1178 33.7153 56.1178 35.6747C56.1178 36.2539 56.0046 38.1725 55.3901 37.4078C54.4187 36.199 53.9122 34.7633 53.1075 33.4313C52.3734 32.2164 51.4755 31.3877 50.5956 30.3266C49.8969 29.4841 48.9867 28.4125 48.0438 27.8812C46.7272 27.1393 45.6551 26.1091 44.0866 26.3182C42.6508 26.5097 41.4516 27.8786 40.1393 28.5085C38.5395 29.2764 36.3486 29.9084 34.5872 29.9439C32.8544 29.9787 31.5316 29.1372 29.9222 28.6467C28.4857 28.2089 27.2836 27.0731 25.6959 27.0731C24.0074 27.0731 22.3258 26.4655 20.7618 27.4665C20.064 27.9131 19.0992 28.1017 18.5788 28.7956C18.0855 29.4533 17.4917 30.2477 17.2232 31.0496C16.8086 32.2879 16.4656 33.4315 16.4656 34.771C16.4656 35.9368 16.645 37.1247 16.645 38.3222C16.645 38.7217 16.5061 40.6397 16.8245 40.4699" stroke="#29947A" stroke-width="3" stroke-linecap="round"/>
<path d="M32.2547 61.9047C33.4606 61.8333 34.7245 61.4929 35.9328 61.3412C36.9927 61.2082 38.0839 61.1402 39.0827 60.6607C40.4942 59.9832 41.6194 59.3234 42.8007 58.2685C43.6151 57.5412 44.7349 56.1188 44.9936 55.015" stroke="#29947A" stroke-width="3" stroke-linecap="round"/>
<path d="M18.2598 48.1252C18.6853 49.1843 18.7558 50.4272 19.0573 51.5382C19.4292 52.9089 19.9148 53.826 20.6621 55.0044C21.5647 56.4276 22.2999 58.0238 23.4232 59.268C24.4207 60.3729 24.8738 61.801 25.337 63.2126C25.8738 64.8485 25.8214 66.8662 26.6129 68.4012C27.2891 69.7126 28.3167 70.9067 29.5634 71.6228C30.7833 72.3235 32.1606 73.3878 33.6004 73.3878C34.7493 73.3878 36.1414 74.1303 37.2386 74.4935C38.7405 74.9907 40.4121 74.9819 41.9435 74.6849C43.9824 74.2895 45.1713 73.0332 46.9673 72.1438C47.7912 71.7357 48.4901 71.0533 49.0804 70.3256C49.6999 69.5621 50.7345 69.0143 51.2335 68.1779C52.9871 65.2385 55.5061 63.4168 54.7721 59.5019C54.2395 56.6615 54.3181 53.1855 55.1309 50.4112C55.7267 48.3777 56.7065 45.5535 55.7589 43.532" stroke="#29947A" stroke-width="3" stroke-linecap="round"/>
<path d="M25.4367 65.1583C25.3385 66.1006 24.4814 67.3565 24.0013 68.1247C23.1842 69.4321 22.3568 70.7401 21.31 71.8567C20.2231 73.0161 18.8635 74.2788 17.4724 74.9932C16.5595 75.4621 15.5737 75.6112 14.6714 76.0671C12.3417 77.2442 9.62218 77.3672 7.31514 78.5976C5.53715 79.5459 4.08951 80.8489 2.47076 82" stroke="#29947A" stroke-width="3" stroke-linecap="round"/>
<path d="M55.4001 59.991C55.4001 62.02 55.7496 63.4898 57.0049 65.052C57.5652 65.7493 58.1106 66.3372 58.6297 67.1678C59.2574 68.1722 59.7875 68.9628 60.7429 69.6026C62.7935 70.9761 64.2038 73.3914 65.8065 75.291C67.4884 77.2843 69.8399 77.981 72.2657 77.981" stroke="#29947A" stroke-width="3" stroke-linecap="round"/>
<path d="M24.1807 67.6463C24.8392 69.5426 26.3016 71.549 27.5 73.1113C28.0444 73.8211 28.3746 74.7461 28.8856 75.493C29.3863 76.2249 29.9743 76.9038 30.4605 77.6407C31.0823 78.5833 31.8685 79.2968 32.5139 80.1819C33.0263 80.8846 33.7885 81.2962 34.2283 82" stroke="#29947A" stroke-width="3" stroke-linecap="round"/>
<path d="M55.9383 64.7755C56.935 66.464 56.7781 68.1581 57.1046 70.0385C57.3217 71.289 57.5311 72.6321 56.9251 73.7811C56.0563 75.4287 54.7411 76.7072 53.9647 78.3636" stroke="#29947A" stroke-width="3" stroke-linecap="round"/>
</svg>
