<svg width="87" height="84" viewBox="0 0 87 84" fill="none" xmlns="http://www.w3.org/2000/svg">
<path d="M23.8122 24.6623C24.0333 24.4355 24.1754 24.1689 24.3701 23.9216C24.8342 23.3321 25.5047 22.9175 26.0309 22.3862C26.8222 21.5871 27.7919 20.6676 28.3613 19.6791C29.588 17.5494 31.366 16.1101 33.3174 14.7296C34.0876 14.1846 34.7287 13.8529 35.6805 13.7599C36.4097 13.6887 37.1556 13.6581 37.873 13.4838C38.629 13.3001 39.6687 13.2844 40.4069 13.5175C41.6325 13.9043 42.0089 14.5887 42.5994 15.6656C43.5656 17.4276 45.1489 19.8138 47.3914 19.8138C48.1075 19.8138 48.721 19.7738 49.3344 19.4502C49.7578 19.2268 50.2145 19.0867 50.6276 18.8374C51.1801 18.504 51.6013 18.0031 52.1243 17.6454C53.4483 16.74 56.2342 17.0296 57.2511 18.265C58.8693 20.2308 61.0097 22.3945 63.2772 23.5445C64.7092 24.2707 66.3148 24.4921 67.8854 24.6354C68.6655 24.7065 69.6456 24.7046 70.0713 23.9283C70.472 23.1975 70.4945 21.9205 70.2223 21.1471C69.7556 19.8213 69.2183 18.5201 68.7191 17.2077C68.1231 15.6412 67.6548 14.0315 66.8745 12.541C66.0241 10.9166 64.7865 9.2408 63.5135 7.93495C60.7293 5.07873 56.5 3.00608 52.6166 2.35916C48.5273 1.67792 43.9967 2.04797 39.9343 2.78341C35.7865 3.53428 31.5608 5.92949 28.6632 9.02586C26.2709 11.5823 24.1715 14.6555 23.3395 18.1168C22.8986 19.9513 22.8669 21.817 22.8669 23.6926" stroke="#29947A" stroke-width="3" stroke-linecap="round"/>
<path d="M21.2155 32.2737C21.8281 32.2102 22.6561 32.0565 23.2411 32.3597C23.8989 32.7005 24.0734 34.2933 24.2599 34.9258C25.0344 37.5531 25.8634 40.1826 27.6182 42.2742C28.6237 43.4726 29.9428 43.636 31.403 43.8765C32.9348 44.1288 34.6827 43.9072 36.1296 43.324C36.9618 42.9886 37.699 42.4824 38.5107 42.1085C39.2514 41.7673 39.6784 41.0541 40.1928 40.4448C40.6616 39.8895 40.7838 39.1074 40.8384 38.4005C40.9187 37.3602 41.0457 36.3299 41.0457 35.2818C41.0457 33.7747 40.8453 32.7235 40.0329 31.4449C39.2453 30.2054 38.2504 29.5026 37.0181 28.8236C34.5261 27.4504 30.8608 27.5459 28.2757 28.6517C27.045 29.1781 25.9664 30.0419 24.7337 30.5609C23.8124 30.9489 23.2258 31.8795 22.9213 32.8262" stroke="#29947A" stroke-width="3" stroke-linecap="round"/>
<path d="M42.3251 33.5997C42.3251 33.0702 43.3139 32.6267 43.7111 32.4702C44.4858 32.1648 45.2274 32.0527 46.0507 32.0527C46.3056 32.0527 47.2853 32.1762 47.099 32.6052C46.6287 33.6885 46.8442 34.7942 47.0753 35.9264C47.2881 36.9689 47.7765 37.9262 48.0349 38.9591C48.26 39.8593 48.7815 40.8299 49.3616 41.5314C50.831 43.3082 53.1309 44.3395 55.3557 44.1835C56.8398 44.0794 58.3648 43.6776 59.8098 43.324C61.1231 43.0026 62.1185 42.425 62.8424 41.2244C64.3036 38.8013 63.9134 35.4676 61.877 33.5445C59.6605 31.4515 56.0961 30.7212 53.2234 31.4142C51.9214 31.7284 50.5463 32.06 49.2609 32.4456C48.4571 32.6868 47.605 33.3209 47.0161 33.9313" stroke="#29947A" stroke-width="3" stroke-linecap="round"/>
<path d="M64.6075 35.1468C65.5082 35.1468 66.3389 34.6842 67.107 34.2382C67.7515 33.8639 68.9494 33.3397 69.0853 32.4947" stroke="#29947A" stroke-width="3" stroke-linecap="round"/>
<path d="M36.7866 54.1996C37.8152 56.0117 39.314 56.4652 40.3509 56.8045C42.8397 57.6189 45.1204 57.2464 47.1431 56.1895C48.7222 55.3643 51.4201 55.4466 51.8547 52.1208" stroke="#29947A" stroke-width="3" stroke-linecap="round"/>
<path d="M22.1749 42.219C22.1749 43.6628 22.6122 45.1535 23.0041 46.5286C23.4263 48.0095 24.0015 49.4944 24.6507 50.8873C25.9385 53.65 27.0533 56.6327 28.9982 58.9909C29.6857 59.8244 30.3358 60.7514 30.787 61.7534C31.2489 62.7794 32.2767 63.6781 33.1562 64.3196C34.1534 65.0469 35.0344 65.8313 36.1414 66.3946C37.2286 66.9477 38.6692 67.3734 39.8729 67.4996C41.1097 67.6292 42.3715 67.4846 43.6044 67.4136C43.7301 67.4064 43.888 67.2102 43.9894 67.1374C44.2306 66.9643 44.5912 66.921 44.866 66.855C45.7484 66.6429 46.6416 66.4881 47.5254 66.2841C49.121 65.9156 51.3945 65.534 52.6666 64.3196C53.5591 63.4675 54.6072 62.8113 55.5215 61.999C56.0604 61.5202 56.545 60.9838 57.0852 60.5011C57.6072 60.0347 58.0817 59.4216 58.5304 58.8804C59.6072 57.5816 60.365 56.037 61.409 54.7304C62.3191 53.5913 62.8004 52.3741 63.4347 51.0592C63.7246 50.4582 64.0426 49.8766 64.5008 49.4017" stroke="#29947A" stroke-width="3" stroke-linecap="round"/>
<path d="M29.7446 62.1095C29.6912 62.3859 29.4295 62.6471 29.3181 62.9076C29.0637 63.5027 28.9915 64.1503 28.785 64.7616C28.4732 65.6851 28.4981 66.7716 28.3823 67.7451C28.2278 69.044 27.8373 70.3902 27.8373 71.6987C27.8373 72.3092 28.1296 72.8865 28.1453 73.4913C28.2219 76.4266 28.6921 79.3763 29.9578 82" stroke="#29947A" stroke-width="3" stroke-linecap="round"/>
<path d="M58.3172 60.452C58.3172 61.7463 58.3687 63.0905 58.4297 64.3871C58.4636 65.1056 58.5304 65.8078 58.5304 66.5296C58.5304 67.3589 58.3005 68.0556 58.104 68.8502C57.7781 70.1673 57.2654 71.3553 56.7713 72.6073C56.5187 73.2472 56.3397 74.0242 55.9717 74.5963" stroke="#29947A" stroke-width="3" stroke-linecap="round"/>
<path d="M1.95081 64.2746C2.3285 63.296 3.43862 62.768 4.24216 62.2164C5.32107 61.4757 6.38701 60.7954 7.53599 60.1779C8.37625 59.7263 9.34111 59.5639 10.1615 59.0696C10.6947 58.7483 10.9762 58.4796 11.6032 58.3076C13.8658 57.6868 15.8724 57.6515 18.1049 58.08C20.3235 58.5059 22.5378 58.3967 24.8071 58.3967" stroke="#29947A" stroke-width="3" stroke-linecap="round"/>
<path d="M60.3804 58.3967C60.6987 58.4379 61.2294 60.3891 61.4115 60.7122C62.2982 62.2851 63.377 63.5103 64.5908 64.809C66.8783 67.2564 69.6139 69.1013 72.7538 70.1427C73.9876 70.5519 75.4083 70.7245 76.6968 70.865C78.0222 71.0097 79.3046 71.3845 80.6208 71.5379C82.2186 71.7243 84.2376 71.3681 85.4708 72.6462" stroke="#29947A" stroke-width="3" stroke-linecap="round"/>
</svg>
