<svg width="70" height="84" viewBox="0 0 70 84" fill="none" xmlns="http://www.w3.org/2000/svg">
<path d="M2.82391 39.8293C3.53072 39.3078 5.10381 39.1045 6.00589 39.2352C7.28452 39.4205 7.66009 40.5666 8.49181 41.2417C9.03525 41.6828 9.09823 42.2692 9.82868 42.4972C10.9482 42.8467 11.7456 41.4714 11.7732 40.4346C11.8112 39.0082 11.9721 37.6367 11.9721 36.1974C11.9721 34.8246 11.7604 33.54 11.9279 32.1619C12.0871 30.8522 12.6668 29.7759 13.0659 28.53C13.4344 27.3797 13.9992 26.3384 14.447 25.2231C14.7726 24.4123 15.4535 24.1848 15.9496 23.5305C16.1984 23.2024 17.9075 22.1316 18.2919 22.5216C18.8215 23.059 18.0453 25.3395 17.8278 25.9069C17.3936 27.0397 17.2393 28.2991 16.5572 29.3371C15.2246 31.3652 15.313 33.29 15.5518 35.5921C15.6862 36.8874 17.6668 36.6009 18.5349 36.6009C20.5049 36.6009 21.1701 35.6029 21.6175 33.7873C21.9495 32.4397 21.7595 30.9797 22.1147 29.6285C22.497 28.1738 22.8671 26.6014 23.4073 25.2007C23.7542 24.3014 23.7894 22.2278 24.7 21.7145C25.5848 21.2158 26.2709 20.8068 27.2412 20.5039C29.8705 19.6831 28.3892 26.9513 28.5781 28.2161C28.9022 30.3865 29.7477 32.62 30.4674 34.6953C31.0443 36.3589 32.3216 37.3759 33.8924 38.0133C35.3536 38.6063 38.8201 39.9426 38.8201 37.1054C38.8201 35.1421 36.1303 33.576 35.2403 31.9601C34.195 30.0623 31.6857 24.0626 32.7655 25.9406C33.834 27.7991 35.327 29.351 36.4778 31.153C37.2555 32.3709 38.3167 33.0831 39.3946 33.9779C40.0287 34.5043 40.4651 35.0752 41.2508 35.3903C45.1594 36.9581 49.4312 36.9831 53.5367 36.3543C54.4996 36.2069 55.3958 35.891 56.0116 35.0876C56.6112 34.3055 55.4957 33.3017 54.8184 33.1708C53.48 32.9121 50.6347 32.4289 50.1117 30.9961C49.6851 29.8276 48.8695 28.7521 48.1671 27.7341C48.0287 27.5334 47.1266 26.155 47.7694 26.9606C48.534 27.919 49.3966 28.7685 50.2553 29.6397C51.667 31.072 52.9714 32.9583 54.73 33.9779C55.603 34.484 56.4658 35.8252 56.8292 36.7579C57.6551 38.8774 56.5198 41.2003 56.5198 43.3603C56.5198 45.9277 58.8937 42.5902 59.2599 41.847C59.6174 41.1216 60.3282 39.9343 61.105 39.6387C62.0779 39.2686 63.2808 39.5311 64.1654 39.1231C65.1026 38.6909 67.207 38.9545 67.6568 37.6995C68.3329 35.8131 68.0545 34.1454 68.0545 32.1731C68.0545 30.5293 68.4523 28.9485 68.4523 27.3194C68.4523 24.8238 67.7299 22.5778 66.3089 20.5487C65.3288 19.1493 64.6839 17.512 63.6683 16.1209C62.3002 14.2472 60.3603 12.6685 58.608 11.1775C56.3543 9.25969 54.2972 7.60419 51.5922 6.33491C48.9688 5.10387 46.6054 3.39158 43.7477 2.70298C39.1584 1.59712 34.5612 1.87281 29.9812 2.99444C28.1184 3.45065 26.2737 4.03871 24.457 4.67588C21.5985 5.6784 19.5715 6.87078 17.3417 8.91312C13.9287 12.0392 10.507 16.1117 8.49181 20.3582C7.40636 22.6454 6.0133 24.8452 4.81264 27.0727C3.84993 28.8588 3.35249 30.8362 2.62503 32.7224C2.02198 34.286 0.991042 37.0399 2.02841 38.6187" stroke="#29947A" stroke-width="3" stroke-linecap="round"/>
<path d="M9.58557 44.2683C9.87669 44.2134 12.1488 43.5732 12.1488 44.3019C12.1488 45.6547 11.5477 46.8226 12.0163 48.1917C12.7293 50.2751 12.8904 53.3912 15.2424 54.3458C16.3378 54.7903 17.4041 55 18.5791 55.1192C20.2769 55.2915 20.9674 55.0571 22.3135 54.1552C23.2497 53.5279 24.2458 53.0963 25.0977 52.328C25.9604 51.5501 27.0786 51.0264 27.6831 50.0189C28.7978 48.1608 29.721 46.3431 28.7548 44.1562C27.6769 41.7166 24.7332 39.3081 22.1146 38.8653C20.3356 38.5644 16.8813 38.511 15.3529 39.6387C13.8682 40.7343 12.9389 41.9307 12.3698 43.663" stroke="#29947A" stroke-width="3" stroke-linecap="round"/>
<path d="M29.473 45.479C31.4 45.479 33.3216 45.6808 35.2404 45.6808" stroke="#29947A" stroke-width="3" stroke-linecap="round"/>
<path d="M42.002 41.2417C40.0642 41.2417 38.3602 41.8898 37.0744 43.4612C36.3594 44.3349 36.3894 45.349 36.1242 46.3869C35.8616 47.4143 35.2624 48.4474 35.2624 49.5256C35.2624 52.1138 36.0176 54.0291 38.4665 55.1641C41.4306 56.5378 44.3219 56.7459 47.4047 55.7582C49.8208 54.9841 52.5394 52.7158 52.2219 49.8171C51.8519 46.4387 50.284 44.7153 47.4158 43.1025C44.945 41.7132 41.5897 41.847 38.8311 41.847C37.8014 41.847 36.2347 41.9748 36.2347 43.2594" stroke="#29947A" stroke-width="3" stroke-linecap="round"/>
<path d="M52.7412 45.6808C54.5871 46.3051 56.8636 44.9285 58.1108 43.6631" stroke="#29947A" stroke-width="3" stroke-linecap="round"/>
<path d="M25.8932 65.051C26.7264 66.7416 27.7907 67.6417 29.5503 68.369C31.0706 68.9974 32.1496 70.2192 33.9476 70.0841C36.3942 69.9002 40.329 68.4104 41.0077 65.6563" stroke="#29947A" stroke-width="3" stroke-linecap="round"/>
<path d="M66.0658 39.0223C65.7923 42.0745 66.078 45.1958 65.668 48.3151C65.2915 51.1805 63.6902 54.1234 62.0773 56.4757C60.2897 59.0827 57.3449 60.1612 54.73 58.3925" stroke="#29947A" stroke-width="3" stroke-linecap="round"/>
<path d="M57.3153 60.0067C56.7098 60.0835 55.1926 62.6755 55.1277 63.2351C55.0857 63.5976 54.7347 64.2837 54.5753 64.6475C54.1904 65.5261 54.1134 66.9201 53.8903 67.8759C53.6044 69.1007 53.2543 70.2752 52.9843 71.5078C52.8237 72.2412 52.4766 73.5884 52.7854 74.3326C53.4659 75.9724 53.2996 78.1485 53.5809 79.8926C53.6947 80.5979 54.1334 81.3016 54.1334 82" stroke="#29947A" stroke-width="3" stroke-linecap="round"/>
<path d="M3.24749 39.7284C3.24749 41.759 3.06323 43.8918 3.31873 45.9079C3.61298 48.2299 4.64987 50.3635 5.31335 52.5753C6.24007 55.6647 7.13462 57.9908 9.80127 59.7125C10.9092 60.4279 12.4172 59.568 13.5056 59.568C13.597 59.568 13.185 60.2431 13.185 60.7063C13.185 61.2805 12.8644 61.8058 12.8644 62.4951C12.8644 65.3954 14.9812 68.303 16.0701 70.7887C17.52 74.0986 17.9935 76.7588 17.9935 80.3833" stroke="#29947A" stroke-width="3" stroke-linecap="round"/>
</svg>
