<svg width="69" height="83" viewBox="0 0 69 83" fill="none" xmlns="http://www.w3.org/2000/svg">
<path d="M20.3328 38.5319C20.0798 38.6 19.8852 38.4329 19.6533 38.3527C19.1425 38.1759 18.6151 38.0915 18.0791 38.0745C16.6188 38.0282 14.7654 37.5189 13.3486 38.0803C11.4229 38.8432 9.74994 40.7592 8.91718 42.6912C8.12124 44.5377 8.2696 46.5173 9.16534 48.2682C10.3407 50.5657 12.2389 50.7378 14.2858 51.6906C15.4272 52.2219 17.2233 52.164 18.3073 51.4774C18.9458 51.0731 19.6862 50.6925 20.1615 50.0751C20.8657 49.1605 21.4003 48.2321 21.8604 47.1647C22.2723 46.2092 22.6329 45.1851 22.6435 44.1239C22.654 43.074 22.7867 41.887 22.5497 40.8625C22.3386 39.9503 21.1417 38.3144 20.2179 38.2187" stroke="#29947A" stroke-width="3" stroke-linecap="round"/>
<path d="M22.1923 40.3064C22.6889 40.4238 23.4321 40.1401 23.9415 40.0817C24.6727 39.9978 25.3832 39.7816 26.1094 39.6911C27.109 39.5666 27.6593 39.8642 28.573 40.2896" stroke="#29947A" stroke-width="3" stroke-linecap="round"/>
<path d="M34.8877 34.9175C32.8866 34.7102 30.7105 35.1579 29.4175 36.9454C28.5895 38.09 28.134 39.6462 27.9346 41.0458C27.645 43.0789 28.5813 45.4484 30.1905 46.6844C31.1008 47.3835 32.0755 47.9138 33.113 48.3766C34.3838 48.9435 35.5134 48.7362 36.8294 48.678C37.943 48.6288 38.8657 48.3849 39.8364 47.7906C40.914 47.1307 41.5317 45.887 42.0284 44.7346C42.4848 43.6759 43.0531 42.4783 43.1876 41.3205C43.3463 39.9558 42.4972 38.6849 41.965 37.5048C41.6308 36.7636 41.1282 35.7445 40.3754 35.3941C39.5837 35.0256 38.7213 35.0103 37.899 34.7608C36.7197 34.4031 35.5034 35.5682 34.3404 35.543C33.8696 35.5328 33.0358 35.738 32.742 36.1265" stroke="#29947A" stroke-width="3" stroke-linecap="round"/>
<path d="M43.0922 37.0482C45.9371 36.9224 49.4997 36.5989 51.7379 38.735" stroke="#29947A" stroke-width="3" stroke-linecap="round"/>
<path d="M22.5607 61.7757C23.5458 62.2343 24.4287 62.393 25.4766 62.6135C27.332 63.004 28.7212 62.5951 30.4837 61.9501C31.2949 61.6532 32.0637 61.281 32.8527 60.9317C33.065 60.8377 33.4865 60.4854 33.693 60.4643C34.1713 60.4154 34.6173 59.8104 35.0382 59.7918" stroke="#29947A" stroke-width="3" stroke-linecap="round"/>
<path d="M55.3317 31.3689C54.0548 30.9885 53.022 32.0057 52.2708 32.9486C50.5621 35.0934 50.6217 37.5364 52.9699 39.118C55.0571 40.5238 57.8058 40.7998 60.1295 39.8492C61.4636 39.3035 59.766 38.8526 59.1374 39.1859C58.6152 39.4627 57.3852 40.5332 57.8034 41.258C58.0305 41.6514 59.7839 42.5476 59.7562 42.7806C59.7304 42.9984 59.3874 44.4786 59.9174 44.4312C60.8756 44.3454 60.0776 40.6471 59.9679 40.122" stroke="#29947A" stroke-width="3" stroke-linecap="round"/>
<path d="M56.5939 47.9495C55.7297 49.1562 55.086 50.6315 54.392 51.9534C53.7574 53.1621 53.3337 53.4709 52.1412 53.8827C50.5448 54.4339 51.2989 56.9887 51.3752 58.216C51.4402 59.2624 51.4725 60.4747 51.7107 61.4865C51.8776 62.1955 51.7812 62.9916 51.9586 63.672C52.211 64.6399 52.1461 66.3659 51.7468 67.2923" stroke="#29947A" stroke-width="3" stroke-linecap="round"/>
<path d="M21.0742 68.5135C22.7413 69.5327 23.9758 71.1991 25.673 72.2205C27.0825 73.0687 28.7414 73.6396 30.2577 74.2629C31.3024 74.6924 32.4337 74.9431 33.5379 75.1394C34.2782 75.271 35.0587 75.0229 35.7427 75.3413" stroke="#29947A" stroke-width="3" stroke-linecap="round"/>
<path d="M29.658 74.6733C28.8427 77.2174 26.8943 79.99 24.3792 80.9865" stroke="#29947A" stroke-width="3" stroke-linecap="round"/>
<path d="M52.4594 65.0885C52.0694 66.3514 51.4115 70.495 52.821 71.3694C55.1133 72.7917 54.6589 74.2254 53.6596 76.5436" stroke="#29947A" stroke-width="3" stroke-linecap="round"/>
<path d="M53.7906 72.0866C56.7244 73.7438 60.2348 76.6975 63.8549 75.7672C64.7049 75.5488 66.9341 74.8206 67.3413 73.876" stroke="#29947A" stroke-width="3" stroke-linecap="round"/>
<path d="M15.8767 13.4542C14.2045 13.6004 11.9242 14.3708 11.0693 16.0724C10.2478 17.7075 10.4976 20.5643 12.5525 20.8137C17.0706 21.3622 22.1035 19.6645 26.1126 17.4932C26.6699 17.1913 29.9843 14.7283 28.0487 13.9172C24.8713 12.5857 19.3092 16.8281 22.5691 20.3348C23.8084 21.6679 25.7375 21.9506 27.3912 22.0909C31.5389 22.4426 35.9159 21.8753 40.0015 21.1171C41.6494 20.8112 48.8581 19.9648 46.6136 16.4156C44.6691 13.3409 36.203 14.1595 37.5321 18.9779C38.6187 22.9172 42.9596 24.8057 46.1606 25.9622C48.9076 26.9547 51.715 27.5222 54.5261 28.2211C55.0425 28.3495 54.6311 28.3773 54.4092 28.4047C53.884 28.4697 53.3597 28.5452 52.8603 28.748C51.5036 29.2988 50.1961 31.1687 51.3991 32.6273C52.484 33.9427 55.1204 35.1077 56.1188 33.1381C58.1738 29.0845 56.8236 23.4402 54.7014 19.792C52.8668 16.6381 50.2443 14.0776 47.0739 12.6401C43.4012 10.9748 39.2711 10.9024 35.3548 10.8122C34.7999 10.7994 28.0049 10.3389 28.0049 11.3948C28.0049 12.7707 29.8175 13.5289 30.8397 13.2148C31.3703 13.0517 31.8771 12.5703 31.8771 11.9296C31.8771 10.8117 30.7284 10.1688 29.9337 9.79842C24.4112 7.2247 17.1933 7.7148 11.6757 10.0778C10.6528 10.5159 9.25449 11.1453 8.81902 12.3687C8.43852 13.4376 8.84204 14.7581 9.40351 15.6493C11.2427 18.5685 16.1575 18.5678 18.5654 16.5832C19.1652 16.0889 19.9008 15.0348 19.2156 14.2684C18.1422 13.0677 16.0022 13.6008 14.7589 14.0449C12.4725 14.8615 10.3678 16.3304 8.40988 17.8284C6.91934 18.9688 4.7749 20.3832 4.15772 22.3942C3.28674 25.2322 5.22123 27.1897 7.66466 27.5826C10.0768 27.9704 12.6743 27.5806 14.9927 26.8243C17.4368 26.027 20.402 24.586 21.4951 21.8594C21.9727 20.6681 22.0677 19.0742 21.5024 17.8923C21.211 17.283 20.7094 16.8503 20.2166 17.4932C19.6967 18.1713 19.5072 19.2486 19.6686 20.1033C20.0305 22.0196 22.7171 21.3403 23.8623 21.0692C27.4562 20.2185 38.2698 16.2767 34.5146 10.3572C33.6667 9.02051 32.6123 7.63963 31.1319 7.14836C29.8078 6.70898 27.9452 6.95461 27.3035 8.48936C26.7058 9.91898 27.1298 11.7353 28.1072 12.8236C29.1971 14.0373 30.8192 14.5093 32.3009 14.7952C34.9467 15.3059 37.6813 15.3568 40.3449 15.0028C42.9173 14.6608 46.0925 13.9096 48.1113 11.9696C49.5513 10.5858 48.4242 9.17852 47.1615 8.28182C44.313 6.25896 38.7662 5.44678 36.4362 8.88846C35.6639 10.0292 35.8078 11.5071 36.48 12.656C37.7664 14.8548 40.5391 15.7511 42.7925 15.8728C44.1137 15.9442 46.1632 15.7886 47.0008 14.428C47.4268 13.736 47.1253 12.9694 46.409 12.7837C43.5503 12.0426 41.4863 16.9917 41.0828 19.3131C40.8654 20.5642 40.7963 21.9281 41.7331 22.8492C42.8196 23.9176 44.4002 24.3711 45.8318 24.3897C46.5675 24.3993 48.139 24.3806 48.6301 23.5915C49.0638 22.8946 47.712 23.1049 47.4976 23.2323C45.554 24.3872 45.3299 28.2013 46.3432 30.089C46.6388 30.6396 47.2743 31.5428 47.9506 31.5018C48.7118 31.4556 48.9781 29.9891 49.0611 29.3786C49.476 26.3296 47.318 24.1783 44.5094 24.6132C41.6068 25.0627 39.9197 28.622 41.8135 31.2703C43.1781 33.1786 46.4426 33.7775 48.199 32.1563C49.1475 31.2809 49.3124 29.9158 49.1926 28.6362C48.9479 26.0219 47.7799 23.7773 46.0072 22.027C44.379 20.4195 42.3038 18.9742 40.2353 18.1557C39.3525 17.8064 38.059 17.4836 37.4736 18.5628C36.9387 19.549 36.7274 21.5399 37.5321 22.4341C38.0679 23.0296 38.9124 22.7486 39.4024 22.2346C40.2965 21.2966 40.5752 19.7773 40.586 18.4909C40.6213 14.2925 38.1363 10.2844 35.5302 7.41975C32.6582 4.2628 28.6736 2.27305 24.6002 2.00788C22.8961 1.89694 18.4057 2.9471 18.8796 5.82333C19.1508 7.46994 21.5885 7.6334 22.0139 6.00692C22.8304 2.88478 19.457 1.53256 17.2211 2.29523C14.6191 3.18277 13.2331 6.25363 13.4365 9.08003C13.6868 12.5595 17.3845 15.9893 20.6184 14.3802C21.5112 13.9359 22.4153 12.8674 21.9116 11.7301C21.3775 10.5242 20.0602 10.3435 18.9818 10.5248C17.1589 10.8312 15.6291 11.9669 14.2548 13.2467C13.191 14.2373 11.454 15.6875 11.2593 17.3335C11.1302 18.4249 11.9094 19.4349 12.8009 19.792C14.5203 20.4808 16.7182 20.0662 17.9955 18.6107C19.1525 17.2923 19.707 15.2213 18.8576 13.5341C17.7758 11.3851 15.1447 11.4442 13.2611 11.8897C11.2482 12.3659 9.35202 13.2918 7.60621 14.468C6.47437 15.2305 5.05458 16.0411 4.23078 17.2218C2.87134 19.1701 4.6964 21.9488 6.60527 22.3224C7.29329 22.457 8.18711 22.3261 8.556 21.58C8.88136 20.9221 8.75675 19.988 8.00074 19.8399C6.0134 19.4507 3.46524 21.6523 2.6965 23.5356C1.97041 25.3145 2.01179 28.6062 4.00429 29.4185C5.13658 29.88 6.47558 29.267 7.48931 28.732C8.98395 27.9432 10.7198 26.7165 11.3616 24.9485C11.7768 23.8045 11.3435 22.8479 10.1487 22.9529C8.85738 23.0665 8.2155 24.2029 8.14686 25.5152C8.08741 26.6519 8.5386 28.0059 9.69576 27.2473" stroke="#29947A" stroke-width="3" stroke-linecap="round"/>
</svg>
