<svg width="87" height="84" viewBox="0 0 87 84" fill="none" xmlns="http://www.w3.org/2000/svg">
<path d="M33.6548 62C34.3711 64.9692 36.1632 66.1969 37.4662 66.9247C38.9583 67.758 40.4766 67.8306 41.8413 67.6027C42.8955 67.4266 43.6759 66.7712 44.6548 66.3276" stroke="#29947A" stroke-width="3" stroke-linecap="round"/>
<path d="M25.0057 37.2381C23.9148 36.1238 23.4109 34.4408 23.7689 32.9746C24.3695 30.5152 26.5798 29.619 28.7161 28.4354C29.9951 27.7267 31.4227 27.8297 32.7732 27.307C34.3694 26.6892 37.2767 25.6426 37.6548 23.9048" stroke="#29947A" stroke-width="3" stroke-linecap="round"/>
<path d="M27.6548 22C28.5089 21.0874 29.2685 19.8066 30.6073 19.4359C33.4198 18.6574 36.1573 18.7131 38.0987 16.3455C39.416 14.739 39.5085 9.26148 36.0539 10.8608C34.7668 11.4567 33.7777 12.2059 33.5323 13.5692C33.3545 14.5573 34.7809 14.2402 35.4487 14.138C37.8275 13.7741 39.593 12.1864 41.8215 11.4721C42.7656 11.1695 43.6722 11.1495 44.6548 11.1495" stroke="#29947A" stroke-width="3" stroke-linecap="round"/>
<path d="M42.0457 15.3334C41.4673 15.5055 41.1789 16.5736 41.2377 17.0985C41.3405 18.0163 43.6721 17.5649 44.1973 17.5128C45.19 17.4143 46.1589 17.2617 47.1023 16.9274C48.1851 16.5438 49.1874 15.8787 50.3069 15.6036C52.265 15.1224 53.6839 16.97 54.5919 18.4134C55.3884 19.6797 55.9939 21.8037 54.5919 22.9164C53.088 24.1099 50.1411 23.2771 48.337 23.5468C45.0898 24.0322 41.0971 27.8783 44.5332 30.8236C46.6136 32.607 49.94 31.9537 52.404 31.7152C53.6796 31.5918 55.5294 31.2748 56.6617 32.1025C57.5334 32.7397 56.6578 33.7251 55.9536 33.9937C54.7599 34.4492 53.2 34.0907 51.9864 33.9577C49.1402 33.6459 46.3081 33.3042 43.4438 33.2012C41.2741 33.1232 38.1444 32.5156 36.0722 33.4894C35.6932 33.6675 35.5225 34.1847 35.7726 34.5431C36.7399 35.9291 39.3866 36.1141 40.8474 36.3173C47.7402 37.2759 54.7786 37.0536 61.6548 38.1905" stroke="#29947A" stroke-width="3" stroke-linecap="round"/>
<path d="M53.8011 25.353C53.4 25.78 53.9329 25.3829 54.0992 25.2472C55.3081 24.261 56.8306 23.6807 58.3658 23.3253C60.0017 22.9467 61.7192 22.5462 63.0143 23.819C64.3295 25.1116 65.0172 27.0411 65.0172 28.8178C65.0172 29.861 64.571 30.4055 63.9366 31.1893C63.7092 31.4703 63.3604 32.1263 63.564 32.4941C64.711 34.5665 68.8771 33.4267 70.2806 32.3883C71.605 31.4084 72.7803 27.8054 74.7615 30.149C77.3467 33.2072 73.8749 35.3761 71.7804 37.3783C70.7157 38.3961 68.6095 41.5881 71.0538 42.474C72.9555 43.1632 75.4743 42.958 77.4444 42.7737C79.8638 42.5475 82.2877 42.2253 84.6548 41.6982" stroke="#29947A" stroke-width="3" stroke-linecap="round"/>
<path d="M47.6548 7.95844C48.0163 7.68795 48.5202 7.5859 48.9437 7.45338C51.0777 6.78559 53.5149 6.57453 55.7195 6.93913C58.1775 7.34562 60.5971 8.51445 62.0351 10.6031C62.9272 11.8988 63.4293 13.4183 64.7602 14.3681C67.2797 16.1663 71.2564 15.0305 73.9757 14.3314C74.5917 14.173 76.6548 12.9884 76.6548 14.0743" stroke="#29947A" stroke-width="3" stroke-linecap="round"/>
<path d="M62.6548 17.238C64.1053 17.325 65.803 17.7997 67.0802 18.4166C69.2036 19.4421 68.8356 21.7282 69.9767 23.3701C71.1064 24.9955 73.1669 25.7598 75.0954 24.7365C76.1897 24.156 77.0744 22.9228 78.3433 23.9167C81.2053 26.1584 78.6435 29.1814 79.16 31.902C79.3676 32.9956 81.4465 35.4706 82.6548 33.8407" stroke="#29947A" stroke-width="3" stroke-linecap="round"/>
<path d="M64.6548 22C60.9933 18.8619 58.1358 14.9797 54.5447 11.7888C52.4741 9.94886 49.7037 8.41997 47.6548 10.9526" stroke="#29947A" stroke-width="3" stroke-linecap="round"/>
<path d="M44.6548 20.0952C44.2814 22.5224 40.1688 21.939 38.4881 21.9285C36.6873 21.9174 35.0453 21.6126 33.2844 21.2804C30.7249 20.7975 29.0787 21.6598 27.7474 23.8174C26.7013 25.5128 26.0308 26.4915 23.9048 26.586C23.0604 26.6235 22.2006 26.7619 21.3585 26.7619C20.834 26.7619 20.8297 26.0033 20.6548 25.5952" stroke="#29947A" stroke-width="3" stroke-linecap="round"/>
<path d="M19.8801 23.9048C19.2414 22.5158 20.0948 20.5936 20.774 19.3598C21.3977 18.2267 22.2223 17.1514 23.1704 16.2254C24.1461 15.2725 25.9145 13.5912 27.4021 13.3783C28.1674 13.2688 29.1356 14.1384 29.808 14.397C30.7317 14.7522 31.5105 14.6213 32.3945 14.249C33.6992 13.6995 36.2631 12.9584 36.6548 11.5238" stroke="#29947A" stroke-width="3" stroke-linecap="round"/>
<path d="M32.6548 7.71429C33.1145 5.7801 37.5539 5.0345 39.4094 5.23655C40.898 5.39864 41.9548 6.52286 43.5045 6.57607C45.5773 6.64726 47.5916 5.25044 49.302 4.44677C50.7883 3.74839 52.5286 3.33226 53.9493 2.55749C54.7215 2.13635 54.6004 2.10253 55.3572 2.69686C55.8542 3.08713 56.1693 3.50862 56.71 3.08401C57.5186 2.449 58.6393 2.2848 59.6548 2" stroke="#29947A" stroke-width="3" stroke-linecap="round"/>
<path d="M53.6548 27.7143C53.9016 28.0886 54.6289 28.2515 55.0138 28.3789C56.2312 28.782 57.4676 29.0236 58.7285 29.2535C60.7319 29.6188 61.8485 30.728 62.0626 32.7167C62.2424 34.387 61.528 35.9884 61.3559 37.6316C61.2159 38.9678 61.7071 40.1071 62.5065 41.1911C63.7879 42.9286 65.8461 43.8321 67.7523 44.7854C69.0651 45.4419 70.6834 46.4296 72.219 46.4296C72.498 46.4296 74.0687 46.0121 73.5508 46.7619" stroke="#29947A" stroke-width="3" stroke-linecap="round"/>
<path d="M66.6548 46.7619C66.6548 48.766 66.8832 50.1112 69.1328 50.4799C71.1953 50.8179 72.3021 50.2066 73.6548 48.8634" stroke="#29947A" stroke-width="3" stroke-linecap="round"/>
<path d="M70.6548 38.1807C71.9432 38.0728 73.1029 38.0395 74.3955 38.2737C75.2689 38.432 76.0337 38.6842 76.6177 39.3904C76.9751 39.8225 77.1919 40.4222 77.6548 40.7582C78.6374 41.4714 80.1687 40.7151 80.9881 40.1162C82.6355 38.9121 83.0478 37.1634 83.6548 35.3333" stroke="#29947A" stroke-width="3" stroke-linecap="round"/>
<path d="M60.922 23.9048C60.3798 21.984 58.8108 19.907 60.2407 17.9035C61.1994 16.5602 63.2003 16.1441 64.7888 15.99C66.9728 15.7781 68.3502 16.6786 70.1655 17.7295C71.7667 18.6564 73.8123 19.8755 75.8 19.382C77.179 19.0397 78.1127 17.8034 78.783 16.7032C79.8416 14.9656 80.3544 13.0735 77.8255 12.4762" stroke="#29947A" stroke-width="3" stroke-linecap="round"/>
<path d="M66.6548 12.3478C65.4936 13.5452 63.7804 14.4228 62.0041 14.4636C59.3271 14.525 57.1954 13.1874 54.8498 12.2288C52.1113 11.1096 49.9642 11.4124 47.2643 12.5092C45.1204 13.3801 41.814 14.4455 40.6351 16.4519C39.7207 18.0081 39.892 19.9783 39.9506 21.6776C40.0101 23.4041 39.6063 24.3762 37.6252 24.7026C35.3774 25.073 32.8002 24.6949 30.5554 24.4307C28.9821 24.2455 27.8868 23.4327 26.6548 22.5953" stroke="#29947A" stroke-width="3" stroke-linecap="round"/>
<path d="M28.6548 30.7981C28.6548 28.8759 30.4548 28.6831 32.1068 28.6674C33.3193 28.6559 33.6936 28.7651 34.3351 29.8238C34.9835 30.8937 35.8218 31.8769 37.1479 32.0364C40.194 32.4025 43.053 30.5421 45.7963 29.5689C48.9817 28.4388 51.2769 29.246 53.9881 31.0166C55.8305 32.2197 57.5101 33.3138 59.7689 33.4021C61.4194 33.4667 63.0889 33.4491 64.6548 32.9287" stroke="#29947A" stroke-width="3" stroke-linecap="round"/>
<path d="M46.6548 35.4102C51.024 34.6104 52.4298 40.252 53.6454 42.8777C54.6402 45.0264 56.1685 46.9146 58.7482 47.5396C60.7075 48.0143 62.8932 47.4562 64.6548 46.65" stroke="#29947A" stroke-width="3" stroke-linecap="round"/>
<path d="M56.6548 38.1905C57.335 38.4812 57.5487 39.0759 57.7844 39.6995C58.1587 40.6898 58.665 41.4974 59.5715 42.1689C60.5302 42.8791 61.8937 43.4146 62.6548 42.3575" stroke="#29947A" stroke-width="3" stroke-linecap="round"/>
<path d="M41.6548 35.0902C39.4707 35.2829 37.3409 35.2265 35.1793 35.5625C33.5488 35.8159 31.8321 34.4879 30.6393 33.7765C29.7767 33.2622 29.5195 33.2879 28.9571 34.057C28.4227 34.7877 28.1101 35.5426 27.6548 36.2857" stroke="#29947A" stroke-width="3" stroke-linecap="round"/>
<path d="M64.51 53.4286C64.51 55.0611 64.634 56.5829 64.3182 58.2431C63.9079 60.3994 61.4059 61.9333 59.4155 62.7419C58.579 63.0817 56.6843 63.8243 56.2206 64.566C55.9135 65.0573 55.1795 65.5702 54.7431 65.9691C54.2822 66.3904 54.1896 67.1064 53.7069 67.5477C53.0304 68.166 52.2078 68.885 51.7688 69.6875C50.7613 71.5293 56.7472 71.7311 57.2568 71.7396C58.2479 71.756 59.8743 72.2106 60.4037 73.0024C60.8159 73.619 62.1145 73.9891 62.7639 74.3354C63.4411 74.6965 63.912 74.9575 64.3757 75.528C64.8418 76.1015 65.0893 76.7677 65.5558 77.3433C66.1457 78.0713 66.8322 78.7342 67.4075 79.4744C67.8903 80.0954 68.6548 81.2162 68.6548 82" stroke="#29947A" stroke-width="3" stroke-linecap="round"/>
<path d="M26.8596 48.6667C24.8194 50.8157 25.9183 54.9317 26.2332 57.4693C26.5478 60.0044 26.0306 62.4246 26.0306 64.9358C26.0306 67.4983 25.7911 70.2467 26.6201 72.7166C27.0185 73.9034 27.2857 75.425 28.3612 76.2534C29.8361 77.3894 31.7954 77.1179 33.566 77.1179C36.333 77.1179 39.1211 76.5676 41.7462 75.7381C43.6112 75.1488 45.145 74.0025 46.8404 73.1096C48.5376 72.2158 48.8195 74.3735 48.5815 75.3888C48.2796 76.6766 47.8635 77.7986 46.8496 78.7597C46.4273 79.16 45.8653 79.4944 45.5139 79.9386C45.2465 80.2766 44.8893 80.7752 44.6019 81.0476" stroke="#29947A" stroke-width="3" stroke-linecap="round"/>
<path d="M26.6548 59.986C25.6387 59.986 24.6679 60.0312 23.6786 59.6594C22.1616 59.0894 20.9503 57.3592 19.6442 56.2396C18.0264 54.8527 16.4182 53.0717 14.3929 53.491C12.1455 53.9562 10.1757 54.9529 8.32807 56.8836C6.10012 59.2119 3.83319 61.5145 1.65479 63.9048" stroke="#29947A" stroke-width="3" stroke-linecap="round"/>
</svg>
