<svg width="64" height="84" viewBox="0 0 64 84" fill="none" xmlns="http://www.w3.org/2000/svg">
<path d="M18.6342 29.1506C17.3185 28.84 15.939 29.0578 14.6396 29.3704C13.1483 29.729 11.2691 30.0819 10.3346 31.5089C9.30577 33.0799 8.75055 35.8344 9.1091 37.7387C9.52668 39.9566 11.5074 41.3462 13.1674 42.5992C15.1938 44.1286 17.5764 44.4712 19.7801 43.3008C21.4497 42.414 23.8221 41.1008 24.6182 39.1588C25.4341 37.1688 24.7406 34.667 24.3954 32.6501C24.2903 32.0358 24.1657 31.0644 23.5599 30.7566C22.6955 30.3175 21.7183 30.2215 20.7827 30.0973C19.9122 29.9817 19.0579 29.6716 18.1727 29.7761C17.3913 29.8683 16.7646 30.2691 16.056 30.52" stroke="#29947A" stroke-width="3" stroke-linecap="round"/>
<path d="M9.03723 36.3773C8.58443 36.3773 8.16479 36.2415 7.71441 36.2415C7.32929 36.2415 6.7499 36.3498 6.39159 36.2264C5.97011 36.0814 6.32246 34.3112 6.45534 33.9339" stroke="#29947A" stroke-width="3" stroke-linecap="round"/>
<path d="M26.6802 33.9837C28.2098 33.662 29.7287 33.0335 31.2702 33.0335" stroke="#29947A" stroke-width="3" stroke-linecap="round"/>
<path d="M39.8765 28.1468C38.7303 27.9018 37.3514 28.2877 36.2348 28.5465C35.1408 28.8 34.0879 28.9571 33.2226 29.7154C31.912 30.8637 31.0967 32.3322 30.8718 34.0139C30.6312 35.8126 30.8867 37.3911 32.0591 38.8705C33.8772 41.1645 37.0028 41.9738 39.8606 42.3244C42.2595 42.6186 45.4972 41.6184 46.7297 39.519C48.1957 37.0218 46.4416 33.3024 45.12 31.1029C44.015 29.2639 42.6347 28.5388 40.4822 28.2523C39.7949 28.1609 37.1466 28.0241 36.8643 28.8255" stroke="#29947A" stroke-width="3" stroke-linecap="round"/>
<path d="M47.3353 32.4905C49.2116 32.4905 51.2313 32.4319 53.0729 32.0833" stroke="#29947A" stroke-width="3" stroke-linecap="round"/>
<path d="M26 54.5837C26.0568 54.9906 27.3725 55.4468 27.6186 55.6171C29.0429 56.6029 30.8334 56.4034 32.3462 56.7798C34.3032 57.2667 36.7709 57.0124 38.5401 55.3444C39.2192 54.7042 40.7301 53.4503 41 52" stroke="#29947A" stroke-width="3" stroke-linecap="round"/>
<path d="M8.75038 21.1242C7.61378 21.5968 5.39961 23.4674 6.55099 24.7892C7.71916 26.1303 10.5719 25.6152 11.9538 24.9853C15.8065 23.2293 12.7257 18.5504 10.7107 16.5693C10.1755 16.043 9.09329 15.0436 8.19256 15.1062C7.5686 15.1497 8.12023 16.3312 8.21647 16.5315C8.63816 17.4095 9.83819 19.2757 11.157 18.8467C11.9623 18.5847 11.6687 16.5349 11.5315 15.9433C11.3167 15.0171 10.3954 15.5981 10.2963 16.2676C10.0407 17.9958 11.7898 18.4133 12.942 17.3988C14.0321 16.439 15.0168 14.9801 15.6832 13.7187C15.7954 13.5064 15.3355 14.0736 15.237 14.2918C14.9896 14.8399 14.8555 15.5285 15.0139 16.1168C15.4706 17.8136 18.3225 17.1776 19.4445 16.6899C20.7388 16.1273 23.4091 13.4695 20.3609 13.5075C18.9626 13.5249 17.6351 15.1322 18.799 16.2827C20.6104 18.0731 24.2583 16.7286 26.0427 15.6341C26.8715 15.1258 27.7981 14.3968 28.1305 13.4773C28.267 13.0999 28.1992 12.6327 27.6843 12.6327C26.5958 12.6327 26.4116 14.3765 27.0866 14.9328C28.6908 16.255 32.3277 15.0727 33.0234 13.334C33.8051 11.3802 29.9068 10.5488 29.278 12.052C28.5406 13.8151 31.8558 14.5461 32.9676 14.6387C34.3669 14.7552 35.8645 14.6873 37.215 14.2993C37.9407 14.0908 39.3639 13.5515 39.6056 12.7383C39.9155 11.6955 36.4592 12.0821 35.9878 12.4216C35.5084 12.7667 35.4288 13.4673 35.669 13.96C36.2201 15.0899 37.8569 15.4829 39 15.7095C41.1336 16.1325 43.522 16.2595 45.646 15.7095C46.622 15.4568 47.8975 14.9175 48.3235 13.96C48.5619 13.4241 48.2718 12.9228 47.67 12.8288C46.76 12.6866 46.0487 13.2229 45.7097 13.9751C45.1566 15.2025 45.0198 17.2124 46.3074 18.1077C47.53 18.9578 49.3402 18.7045 50.6504 18.2133C52.055 17.6865 50.3637 18.1289 49.8694 18.6054C48.8217 19.6156 48.3313 22.0514 49.0885 23.3413C49.5729 24.1666 50.6928 24.2078 51.4951 23.839C52.3882 23.4285 51.9919 23.0112 51.5748 23.6128C50.954 24.5079 51.1052 26.1467 52.4991 26.1467" stroke="#29947A" stroke-width="3" stroke-linecap="round"/>
<path d="M3.01282 15.423C3.50238 16.6023 4.71368 17.0507 5.99315 17.1274C7.62651 17.2252 9.54507 17.0554 11.0294 16.3581C13.0118 15.427 12.9076 13.3958 12.5674 11.6147C12.5093 11.3105 11.094 5.73076 9.92974 7.23321C9.21876 8.15071 9.6385 10.1619 10.5194 10.8455C12.3118 12.2364 15.7391 11.1742 17.4523 10.2045C19.3648 9.12198 19.9925 6.65994 17.1893 6.44892C15.2541 6.30324 13.0211 7.96745 14.7588 9.76708C16.8673 11.9506 20.8226 10.3007 22.5523 8.56047C23.732 7.37369 24.5495 5.90821 25.1024 4.37507C25.2521 3.95972 25.8977 2.44885 25.2139 2.07498C24.0228 1.42368 22.4674 5.21046 22.4487 5.89841C22.3687 8.85116 27.7187 8.58666 29.6765 8.37948C30.4319 8.29955 35.9558 7.00695 34.5693 5.37806C33.5627 4.19557 30.3957 3.85883 29.6127 5.40822C28.5006 7.60886 30.7799 8.92322 32.7524 9.26935C36.1263 9.8614 41.5574 9.36571 43.5262 6.22268C43.9102 5.60975 44.0483 4.71386 43.3031 4.27703C42.2499 3.65962 40.7963 4.2335 40.004 4.96329C38.5688 6.28531 38.1875 8.72408 39.502 10.2346C41.5883 12.6321 46.6449 12.1814 49.3116 11.1396C50.0863 10.8369 50.9018 10.2926 51.0169 9.43526C51.1576 8.38818 49.648 8.42819 48.961 8.56802C47.0906 8.94867 44.4324 11.6291 45.8691 13.5528C46.6542 14.6041 48.1938 14.7292 49.4232 14.6689C49.6464 14.658 53.2878 13.9822 53.3438 14.0882C53.3975 14.1898 53.1256 14.1829 53.0171 14.2315C52.7234 14.3631 52.4755 14.479 52.1963 14.6463C51.3849 15.1326 50.7996 15.7602 50.6344 16.6749C50.1553 19.3272 53.7155 22.4535 56.0213 19.9025C56.1357 19.7761 56.5951 19.3199 56.5951 19.1183C56.5951 18.9573 55.8113 19.5492 55.8062 19.5556C54.5772 21.1064 55.3623 24.1666 55.6866 25.8903C55.911 27.0827 56.0889 26.9228 57.2565 27.029C57.9895 27.0958 58.72 27.0969 59.4559 27.0969C60.0317 27.0969 61.0505 27.2638 61.5836 26.9612C61.7609 26.8605 61.5623 26.6299 61.472 26.5539C61.0459 26.1955 60.4803 26.4512 60.0535 26.6671C58.4555 27.4754 56.9271 28.9441 56.4357 30.6413C56.1088 31.7705 58.9845 32.6043 59.5276 31.5764" stroke="#29947A" stroke-width="3" stroke-linecap="round"/>
<path d="M5.45128 21.5315C4.10782 22.0683 2.7139 23.0465 2.39125 24.4877C2.14817 25.5735 2.82462 26.5328 3.72204 27.1497C5.00195 28.0296 7.79548 29.3567 9.3799 28.4619C11.0748 27.5047 9.01472 25.5398 7.54707 26.0336C7.03352 26.2064 6.00822 26.9054 6.74222 27.3684" stroke="#29947A" stroke-width="3" stroke-linecap="round"/>
<path d="M53.2163 37.0062C55.3686 37.0062 56.891 38.9962 57.376 40.807C57.9711 43.0284 58.0035 45.9066 56.7704 47.9712C55.6585 49.8329 53.9299 50.9988 52.0369 52.0736C51.1196 52.5945 50.0911 52.5969 49.5666 53.6347C49.159 54.4412 49.0566 55.3977 49.0566 56.2817C49.0566 57.781 49.4946 59.3947 49.8057 60.8667C50.064 62.089 50.2131 63.4302 50.7779 64.562C51.4631 65.9352 52.5648 67.4012 54.077 67.9857C54.7732 68.2548 58.7159 70.4853 58.9539 69.5845" stroke="#29947A" stroke-width="3" stroke-linecap="round"/>
<path d="M15.9223 58.9965C18.3713 61.5459 20.9324 63.9886 23.2377 66.666C24.0913 67.6574 24.7557 69.0659 26.0347 69.6448C27.4407 70.2811 29.231 70.4537 30.7762 70.233C32.4522 69.9936 34.6978 69.8894 36.1471 69.0415C36.8789 68.6134 37.5413 68.0624 38.2987 67.6841C39.446 67.111 40.5933 66.5986 41.5181 65.7233C42.8449 64.4678 44.571 63.6487 45.9169 62.375C46.9413 61.4055 48.2214 59.9839 49.6304 59.5395" stroke="#29947A" stroke-width="3" stroke-linecap="round"/>
<path d="M20.9427 65.9194C20.8794 67.655 20.036 69.2977 20.2972 71.0777C20.5511 72.8075 20.2697 74.2978 19.588 75.8815C18.6501 78.0599 15.2352 78.122 13.1651 78.5435C12.104 78.7596 10.8608 78.7923 9.88992 79.2976C9.00686 79.7573 8.10194 80.2585 7.18052 80.64C6.5484 80.9017 6.05482 81.3181 5.45129 81.6354C4.97605 81.8853 4.7341 82.3632 4.7341 81.5299" stroke="#29947A" stroke-width="3" stroke-linecap="round"/>
<path d="M8.97787 44.1453C9.1551 45.7385 10.083 47.4869 10.5637 49.0287C11.0786 50.68 11.5972 52.5183 12.4894 54.0194C13.5806 55.8552 14.7847 57.6408 16.0009 59.3673" stroke="#29947A" stroke-width="3" stroke-linecap="round"/>
</svg>
