<svg width="81" height="78" viewBox="0 0 81 78" fill="none" xmlns="http://www.w3.org/2000/svg">
<path d="M15.4258 32.1552C16.1431 32.2025 16.5424 32.9294 17.0816 33.345C17.9664 34.0271 19.1621 34.3622 20.1278 34.8836C21.2302 35.4788 22.8051 35.5071 23.9882 35.6632C24.6413 35.7494 25.3247 36.502 25.9642 36.5864C26.3596 36.6385 25.3234 37.7117 25.2323 37.8788C24.7726 38.7223 24.6277 39.6207 24.6469 40.6073C24.7004 43.37 25.4925 46.9509 27.2815 48.9569C28.0549 49.8242 29.8361 50.2041 30.9041 50.2493C32.3879 50.3121 33.7005 50.6292 35.1853 50.4442C36.7159 50.2535 37.9913 50.4691 39.3018 49.3262C40.6648 48.1375 42.023 47.6549 42.8421 45.8181C43.5162 44.3064 43.5831 43.3293 43.5831 41.6638C43.5831 40.9157 43.675 40.0498 43.3818 39.3559C43.1348 38.7713 42.6527 38.4101 42.3481 37.8788C40.8492 35.2644 36.124 35.1093 33.7033 35.1093C32.0249 35.1093 30.285 35.281 28.6171 35.4888C27.8059 35.5899 27.0691 36.2171 26.2935 36.2171" stroke="#29947A" stroke-width="3" stroke-linecap="round"/>
<path d="M44.0771 39.1713C45.1105 39.1713 46.0349 39.0213 47.0319 39.161C47.5894 39.2391 48.1513 39.5405 48.6876 39.5405" stroke="#29947A" stroke-width="3" stroke-linecap="round"/>
<path d="M48.3583 39.9098C48.3583 43.6049 47.33 49.4036 50.8282 51.5828C52.2574 52.4731 53.8377 52.2803 55.4388 52.2803C57.5917 52.2803 59.4628 50.9852 60.6257 48.9569C61.4593 47.5028 62.5193 46.2583 62.5193 44.5257C62.5193 43.8144 61.8966 42.9132 61.5679 42.3101C61.0652 41.3876 60.0917 40.9983 59.3084 40.4637C57.8463 39.4658 55.6486 38.9213 53.9568 39.4482C52.6712 39.8486 51.2646 39.3448 50.0049 39.9098" stroke="#29947A" stroke-width="3" stroke-linecap="round"/>
<path d="M62.684 42.31C63.2353 42.31 64.7901 42.5398 63.7085 41.6535C62.9667 41.0456 62.7749 40.2162 62.3912 39.3558C61.8022 38.0348 61.0529 36.346 59.72 35.8478" stroke="#29947A" stroke-width="3" stroke-linecap="round"/>
<path d="M54.5458 56.7519C53.9435 56.8169 53.1553 57.7816 52.733 58.1914C52.2002 58.7085 51.778 59.2782 51.2498 59.7908C50.6638 60.3595 50.4602 61.1759 49.8948 61.7457C49.2548 62.3907 48.7088 63.3066 48.2834 64.1093C47.4063 65.7646 46.5444 67.5012 45.6101 69.0675C45.0011 70.0884 43.3377 70.8454 42.2683 71.3067C41.0874 71.8161 39.9006 72.466 38.6428 72.7373C37.0656 73.0775 35.861 72.702 34.3489 72.4352C32.8202 72.1654 31.6953 71.7251 30.3205 71.0579C28.8239 70.3317 27.4336 68.428 26.5301 67.1127C24.6287 64.3445 23.0861 60.7249 20.103 58.9556C17.4061 57.3561 17.9606 53.2237 17.9606 50.683C17.9606 49.66 17.3727 48.0226 16.3859 47.4753C15.7456 47.1202 14.2299 46.5181 14.0146 45.787C13.6809 44.6535 12.6388 43.6259 12.3666 42.4371C12.0781 41.1768 11.8631 39.8223 11.8631 38.5185" stroke="#29947A" stroke-width="3" stroke-linecap="round"/>
<path d="M25.3056 69.8205C24.3924 70.3626 22.6339 71.1962 22.177 72.2207" stroke="#29947A" stroke-width="3" stroke-linecap="round"/>
<path d="M31.5367 71.8318C31.0649 71.9493 30.6046 73.5025 30.3841 73.9243C30.0708 74.5236 29.7596 74.8556 29.5608 75.5245" stroke="#29947A" stroke-width="3" stroke-linecap="round"/>
<path d="M38.9302 72.8729C38.9302 73.9608 39.5297 74.6385 39.7535 75.6424" stroke="#29947A" stroke-width="3" stroke-linecap="round"/>
<path d="M32.6839 61.1151C35.5482 63.2113 39.3073 62.3473 41.0122 60.3803" stroke="#29947A" stroke-width="3" stroke-linecap="round"/>
<path d="M14.5975 31.2727C14.9612 30.9275 15.1549 30.224 15.2735 29.7562C15.4904 28.9011 16.0958 28.2292 16.4896 27.45C17.5783 25.2957 19.5599 23.7486 21.6124 22.5293C25.8086 20.0366 29.9757 21.1676 34.4479 22.2837C37.7606 23.1104 41.5681 24.8078 45.0154 23.7779C47.1987 23.1256 50.3771 22.8418 51.5797 25.1282C52.999 27.8265 54.8099 31.1048 58.5868 29.681C59.4293 29.3634 59.9164 28.3905 60.5112 27.7529C61.3364 26.8682 61.8588 25.6743 62.2633 24.5646C62.8249 23.0237 62.6127 21.7204 62.3381 20.1514C62.0922 18.7466 62.3067 17.9607 62.8774 16.7329C63.1303 16.1887 63.4408 15.6777 63.604 15.0973C63.7866 14.4482 64.4116 14.0825 64.7578 13.5129C65.3443 12.5478 66.0384 11.9139 66.4607 10.8631C66.8703 9.84429 66.2691 8.21947 65.2692 7.699C64.5526 7.32595 63.6078 7.72306 62.8967 7.67207C62.0078 7.60833 61.0663 7.64491 60.231 7.33773C58.9331 6.8604 58.2354 6.13614 57.1118 5.41617C55.9302 4.65913 54.844 3.73557 53.5939 3.04668C52.6202 2.51011 51.5248 2.6173 50.4512 2.77019C48.3959 3.06292 46.2918 3.61329 44.2563 4.0341C42.0536 4.48949 40.3897 4.12291 38.246 3.60313C36.5345 3.18815 34.8954 2.53439 33.1205 2.40712C30.9815 2.25374 29.0785 2.78278 27.088 3.45765C24.5704 4.31119 22.5357 6.44894 20.6061 8.13766C18.8965 9.63379 18.0622 11.4993 17.0524 13.447C16.1706 15.1478 15.7025 17.0539 14.832 18.7701C13.9434 20.5221 13.529 22.4363 13.3901 24.3741C13.3366 25.12 13.4739 25.8426 13.4206 26.5856C13.3732 27.2473 13.6503 28.1342 13.4123 28.7534C13.2287 29.2308 12.9904 29.9472 12.9566 30.4186" stroke="#29947A" stroke-width="3" stroke-linecap="round"/>
<path d="M1.92352 76.0981C2.76025 75.1599 4.27296 74.1332 5.41803 73.8414C7.0433 73.4273 8.61776 72.8967 10.239 72.4977C12.3117 71.9875 14.5945 71.4707 16.1485 69.7282C16.7402 69.0648 18.4004 67.059 19.3777 67.7895" stroke="#29947A" stroke-width="3" stroke-linecap="round"/>
<path d="M50.3343 69.4513C52.2691 68.4871 54.683 69.2114 56.5 70.1078C57.94 70.8183 59.0238 71.7693 60.6257 72.1285C62.2385 72.4902 63.8604 72.5901 65.5015 72.5901C67.1761 72.5901 68.7653 72.4059 70.4231 72.1798C71.69 72.007 73.1646 71.8213 74.4116 72.2208C75.717 72.639 76.8692 73.6087 77.961 74.4775C78.4509 74.8674 79.0714 75.0866 79.4795 75.5442" stroke="#29947A" stroke-width="3" stroke-linecap="round"/>
</svg>
